<?xml version="1.0"?>
<svg xmlns="http://www.w3.org/2000/svg" viewBox="0 0 50 50" enable-background="new 0 0 50 50">
    <path style="text-indent:0;text-align:start;line-height:normal;text-transform:none;block-progression:tb;-inkscape-font-specification:Bitstream Vera Sans" d="M 28.625 2 C 28.290433 2.0042266 27.943302 2.0169065 27.59375 2.0625 C 26.907467 2.152015 26.156739 2.3797901 25.59375 3 C 25.58323 3.011587 25.57287 3.019395 25.5625 3.03125 L 2.90625 25.6875 C 1.802189 26.791561 1.8174114 28.577042 2.84375 29.75 L 2.875 29.78125 L 2.90625 29.8125 L 20.28125 47.21875 C 21.385311 48.322811 23.170792 48.276339 24.34375 47.25 L 24.375 47.21875 L 24.40625 47.21875 L 28.71875 42.90625 C 30.296254 47.052442 34.30848 50 39 50 C 45.063287 50 50 45.063287 50 39 C 50 34.252675 46.973918 30.22479 42.75 28.6875 L 47 24.40625 C 48.137733 23.268517 48 21.70625 48 20.40625 L 48 5.5 C 48 3.5761905 46.42381 2 44.5 2 L 29.59375 2 C 29.281571 2 28.959567 1.9957734 28.625 2 z M 28.625 4 C 28.921683 3.9995391 29.25593 4 29.59375 4 L 44.5 4 C 45.37619 4 46 4.6238095 46 5.5 L 46 20.40625 C 46 21.70625 45.856017 22.737733 45.59375 23 L 40.46875 28.125 C 39.987407 28.060326 39.498705 28 39 28 C 32.936713 28 28 32.936713 28 39 C 28 39.56237 28.043103 40.116303 28.125 40.65625 L 23.03125 45.75 C 23.02005 45.7598 23.01145 45.77201 23 45.78125 C 22.575076 46.12447 22.006927 46.069427 21.71875 45.78125 L 4.34375 28.4375 L 4.3125 28.40625 C 3.9691759 27.981317 4.0242964 27.381954 4.3125 27.09375 L 27 4.40625 L 27.03125 4.375 L 27.0625 4.34375 C 27.196883 4.1901689 27.392854 4.0900626 27.84375 4.03125 C 28.069198 4.0018437 28.328317 4.0004609 28.625 4 z M 39 7 C 36.802706 7 35 8.8027056 35 11 C 35 13.197294 36.802706 15 39 15 C 41.197294 15 43 13.197294 43 11 C 43 8.8027056 41.197294 7 39 7 z M 39 9 C 40.116414 9 41 9.883586 41 11 C 41 12.116414 40.116414 13 39 13 C 37.883586 13 37 12.116414 37 11 C 37 9.883586 37.883586 9 39 9 z M 39 30 C 43.982407 30 48 34.017593 48 39 C 48 43.982407 43.982407 48 39 48 C 34.705814 48 31.12514 45.014262 30.21875 41 A 1.0054782 1.0054782 0 0 0 30.21875 40.9375 C 30.216604 40.927691 30.220864 40.916071 30.21875 40.90625 A 1.0054782 1.0054782 0 0 0 30.1875 40.8125 C 30.185431 40.802347 30.189535 40.791415 30.1875 40.78125 A 1.0054782 1.0054782 0 0 0 30.15625 40.6875 C 30.052961 40.140443 30 39.577765 30 39 C 30 34.017593 34.017593 30 39 30 z M 35.71875 34.28125 L 34.28125 35.71875 L 37.5625 39 L 34.28125 42.28125 L 35.71875 43.71875 L 39 40.4375 L 42.28125 43.71875 L 43.71875 42.28125 L 40.4375 39 L 43.71875 35.71875 L 42.28125 34.28125 L 39 37.5625 L 35.71875 34.28125 z" overflow="visible" enable-background="accumulate" font-family="Bitstream Vera Sans"/>
</svg>
